<svg xmlns="http://www.w3.org/2000/svg" viewBox="0 0 400 300">
  <rect width="400" height="300" fill="#FFF8E8"/>
  <rect x="80" y="100" width="240" height="90" rx="14" fill="#3D2408"/>
  <rect x="83" y="103" width="234" height="40" rx="11" fill="#5A3510" opacity="0.8"/>
  <!-- Oat texture -->
  <ellipse cx="130" cy="140" rx="12" ry="6" fill="#C89A5A" transform="rotate(-10 130 140)"/>
  <ellipse cx="165" cy="148" rx="11" ry="5" fill="#D0AA6A" transform="rotate(15 165 148)"/>
  <ellipse cx="200" cy="142" rx="12" ry="6" fill="#C89A5A" transform="rotate(-5 200 142)"/>
  <ellipse cx="235" cy="150" rx="11" ry="5" fill="#D0AA6A" transform="rotate(10 235 150)"/>
  <ellipse cx="270" cy="143" rx="12" ry="6" fill="#C89A5A" transform="rotate(-8 270 143)"/>
  <!-- Honey drizzle -->
  <path d="M150 108 Q160 115 155 122" stroke="#FFB800" stroke-width="3" stroke-linecap="round" fill="none"/>
  <path d="M220 105 Q232 113 226 120" stroke="#FFB800" stroke-width="3" stroke-linecap="round" fill="none"/>
  <text x="200" y="228" text-anchor="middle" font-family="Georgia,serif" font-size="16" font-weight="600" fill="#5E3D22">Oats Honey Protein Bar</text>
  <text x="200" y="250" text-anchor="middle" font-family="Arial,sans-serif" font-size="11" fill="#9E7352">15g protein · No artificial sweeteners</text>
</svg>
